<svg xmlns="http://www.w3.org/2000/svg" version="1.1" xmlns:xlink="http://www.w3.org/1999/xlink" xmlns:svgjs="http://svgjs.dev/svgjs" width="100%" height="100%" viewBox="0 0 1000 600"><rect width="1000" height="600" x="0" y="0" fill="#1a0933"/><g><rect width="333.3333333333333" height="333.3333333333333" rx="13.333333333333334" ry="13.333333333333334" y="227.28156117656823" fill="#6f42c1" transform="matrix(0.6095796876618451,0,0,0.6095796876618453,0,59.85717781879653)" x="205.059326171875"/><path d="M330.45873996327055 468.9482109444316L330.45873996327055 468.9482109444316Q325.71372461196626 468.9482109444316 322.694169388409 467.65411584862136Q319.7033718336475 466.3600207528111 317.71909268673846 464.66331829385985Q315.76357120862514 462.93785816611285 314.41196077522335 461.6437630703026Q313.0603503418215 460.3496679744923 311.8237705836028 460.3496679744923L311.8237705836028 460.3496679744923Q309.4368840735528 460.3496679744923 309.4368840735528 466.15871707124063L309.4368840735528 466.15871707124063L303.34025828884666 466.15871707124063L303.34025828884666 434.5827967334702L310.2708564686305 434.5827967334702Q310.472160150201 437.57359428823173 311.42116322046184 441.19706055650045Q312.3414086219269 444.8205268247692 314.00935341208236 448.41523542424216Q315.64854053344203 451.9811863549193 318.0929423810836 454.97198390968083Q320.53734422872526 457.99153913323806 323.67193012746566 459.80327226737245Q326.83527369500183 461.6150054015068 330.66004364484104 461.6150054015068L330.66004364484104 461.6150054015068Q335.75015102169476 461.6150054015068 338.4246142197026 459.055572878682Q341.1278350865063 456.5248980246531 342.10559582556294 451.86615567973615Q343.0833565646196 447.2074133348192 343.0833565646196 441.1107875501131L343.0833565646196 441.1107875501131Q343.0833565646196 433.950128019963 340.3513780290201 426.87574149620025Q337.6193994934207 419.7725973036417 333.04693015489113 412.6406954422873Q328.5032184851573 405.4800359121372 322.8954730699795 398.2331033755998L322.8954730699795 398.2331033755998Q315.13090249511794 387.79406960273036 310.9610405197293 379.3968303143615Q306.7624208755449 371.0283486947885 305.2095067605726 363.78141615825103Q303.65659264560026 356.5344836217136 303.65659264560026 349.89146212988754L303.65659264560026 349.89146212988754Q303.65659264560026 340.05633940172953 306.84869388193226 333.18325655953726Q310.06955278706 326.28141604854926 315.5047521894631 322.6291921114847Q320.9399515918662 318.94821050562444 327.4679424085091 318.94821050562444L327.4679424085091 318.94821050562444Q333.04693015489113 318.94821050562444 335.89393936567365 320.8174589773503Q338.7409485764563 322.6579497802805 340.29386269142856 324.52719825200643Q341.8467768064009 326.39644672373237 343.31341791498585 326.39644672373237L343.31341791498585 326.39644672373237Q344.54999767320453 326.39644672373237 345.153908717916 325.246139971901Q345.7865774314232 324.1245908888655 345.7865774314232 321.2200663404913L345.7865774314232 321.2200663404913L351.9982338913125 321.2200663404913L351.9982338913125 352.47965232150807L345.0676357115286 352.47965232150807Q344.86633202995813 348.53985169648575 343.7160252781268 343.93862468916035Q342.5657185262955 339.33739768183494 340.4664087042033 335.3113240504253Q338.3383412133153 331.2564927502198 335.1749976457791 328.66830255859924Q332.0116540782429 326.08011236697877 327.7842767652627 326.08011236697877L327.7842767652627 326.08011236697877Q321.8601969933313 326.08011236697877 318.55306508181616 330.53755103032523Q315.24593317030104 334.9949896936717 315.24593317030104 343.0758946252868L315.24593317030104 343.0758946252868Q315.24593317030104 348.76991304685197 316.85636262286494 354.49268913721295Q318.4667920754288 360.24422289636965 322.49286570683853 367.08854806976615Q326.51893933824823 373.90411557436687 333.24823383646157 383.02029658263024L333.24823383646157 383.02029658263024Q339.68995164671713 391.1012015142454 344.6075130107961 399.38341012743115Q349.5250743748751 407.66561874061676 352.37208358565766 416.4654653921266Q355.21909279644024 425.26531204363636 355.21909279644024 434.5827967334702L355.21909279644024 434.5827967334702Q355.21909279644024 443.5839470665505 353.4073596623059 450.0544225456018Q351.5956265281715 456.5248980246531 348.3172522854522 460.666002331246Q345.0676357115286 464.8071066378388 340.5526817105906 466.8776587911352Q336.06648537844836 468.9482109444316 330.45873996327055 468.9482109444316ZM390.82108676562035 466.15871707124063L363.78887809758373 466.15871707124063L363.78887809758373 459.11308821627364L373.3364241377839 459.11308821627364L373.3364241377839 328.15066452027514L363.78887809758373 328.15066452027514L363.78887809758373 321.2200663404913L392.7766082437336 321.2200663404913L424.46755925668714 432.10963721703286L423.74861753679255 432.10963721703286L423.74861753679255 328.15066452027514L414.3161021717755 328.15066452027514L414.3161021717755 321.2200663404913L440.1117310815934 321.2200663404913L440.1117310815934 328.15066452027514L430.8805193981469 328.15066452027514L430.8805193981469 466.15871707124063L417.93956844004424 466.15871707124063L379.6343536040605 332.4067995020511L380.58335667432135 332.4067995020511L380.58335667432135 459.11308821627364L390.82108676562035 459.11308821627364L390.82108676562035 466.15871707124063Z " fill="#32fbe2" transform="matrix(0.6095796876618451,0,0,0.6095796876618453,0,59.85717781879653)"/><path d="M647.4582098361282 468.9482073091848L647.4582098361282 468.9482073091848Q642.9557540510848 468.9482073091848 640.090554915148 467.7202648223548Q637.2526433900298 466.4923223355247 635.3697982435569 464.8823532972365Q633.5142407079027 463.2450966481298 632.2317229994358 462.01715416129974Q630.9492052909688 460.7892116744697 629.7758380257758 460.7892116744697L629.7758380257758 460.7892116744697Q627.5109663278448 460.7892116744697 627.5109663278448 466.3013090597956L627.5109663278448 466.3013090597956L621.7259928343344 466.3013090597956L621.7259928343344 436.33951238114287L628.3023070415798 436.33951238114287Q628.4933203173089 439.1774239062612 629.3938114743175 442.61566286938523Q630.2670150205078 446.0539018325093 631.8496964479775 449.46485318481496Q633.4050902646289 452.8485169263022 635.7245371841968 455.68642845142045Q638.0439841037646 458.5516275873572 641.0183336829751 460.27074706891926Q644.019970873004 461.9898665504813 647.6492231118573 461.9898665504813L647.6492231118573 461.9898665504813Q652.4791302267221 461.9898665504813 655.0168780328374 459.5612691876397Q657.5819134497713 457.15995943561654 658.5096922175985 452.7393664830284Q659.4374709854255 448.31877353044024 659.4374709854255 442.5338000369299L659.4374709854255 442.5338000369299Q659.4374709854255 435.7391849431371 656.8451479576734 429.02643268179963Q654.252824929921 422.28639280964364 649.9140948097883 415.51906532666925Q645.6026523004739 408.7244502328764 640.2815681908771 401.84797230662826L640.2815681908771 401.84797230662826Q632.913913269897 391.9425695795327 628.9572097012224 383.9745872205467Q624.9732185217295 376.0338924723792 623.4996875375334 369.157414546131Q622.0261565533374 362.2809366198828 622.0261565533374 355.977498520822L622.0261565533374 355.977498520822Q622.0261565533374 346.6451356209138 625.0550813541847 340.12339663530537Q628.1112937658506 333.57437003887856 633.2686522105367 330.108843464936Q638.4260106552229 326.61602928017504 644.62029831101 326.61602928017504L644.62029831101 326.61602928017504Q649.9140948097883 326.61602928017504 652.6155682808144 328.389723983374Q655.3170417518404 330.13613107575446 656.7905727360364 331.9098257789534Q658.2641037202325 333.68352048215235 659.6557718719732 333.68352048215235L659.6557718719732 333.68352048215235Q660.8291391371663 333.68352048215235 661.4021789643537 332.59201604941455Q662.0025064023594 331.52779922749517 662.0025064023594 328.7717505348322L662.0025064023594 328.7717505348322L667.8966303391436 328.7717505348322L667.8966303391436 358.4333834944821L661.3203161318984 358.4333834944821Q661.1293028561693 354.6949808123551 660.0377984234315 350.32896308140386Q658.9462939906936 345.9629453504526 656.9542984009471 342.1426798358703Q654.9350152003822 338.29512671046956 651.9333780103532 335.83924173680947Q648.9317408203242 333.38335676314944 644.9204620300128 333.38335676314944L644.9204620300128 333.38335676314944Q639.2992142014131 333.38335676314944 636.1611389572919 337.61293644000847Q633.0230637131707 341.84251611686744 633.0230637131707 349.5103347568505L633.0230637131707 349.5103347568505Q633.0230637131707 354.91328169890267 634.5511699190037 360.3435162517732Q636.0792761248365 365.80103841546224 639.8995416394189 372.2954897902522Q643.7198071540013 378.7626535542237 650.1051080855174 387.41282618367075L650.1051080855174 387.41282618367075Q656.2175329088491 395.08064482365387 660.8837143588032 402.93947673936606Q665.5498958087574 410.79830865507824 668.2513692797834 419.14831756552246Q670.9528427508094 427.4983264759667 670.9528427508094 436.33951238114287L670.9528427508094 436.33951238114287Q670.9528427508094 444.8805345673162 669.2337232692473 451.0202470014664Q667.5146037876854 457.15995943561654 664.4038161543826 461.0893753934726Q661.3203161318984 465.0187913513287 657.0361612334025 466.98349933025673Q652.7792939457249 468.9482073091848 647.4582098361282 468.9482073091848ZM708.2822943504423 468.4570303144528L708.2822943504423 468.4570303144528Q702.8793474083902 468.4570303144528 697.96757746107 464.9369285188734Q693.05580751375 461.3895391124755 689.2082543883491 454.51306118622733Q685.387988873767 447.63658325997915 683.2322676191097 437.6220300896098Q681.0492587536341 427.6074769192404 681.0492587536341 414.53671133720525L681.0492587536341 414.53671133720525Q681.0492587536341 400.2925784899769 683.3687056732019 390.35988815206287Q685.6881525927697 380.4544854249673 689.562993328989 374.3147729908171Q693.4378340652082 368.17506055666695 698.2950287908914 365.3098614207302Q703.1522235165746 362.47194989561194 708.2822943504423 362.47194989561194L708.2822943504423 362.47194989561194Q713.3850775734916 362.47194989561194 718.2422722991748 365.3098614207302Q723.0994670248581 368.17506055666695 727.0288829827141 374.3147729908171Q730.9582989405703 380.4544854249673 733.2777458601381 390.35988815206287Q735.5699051688875 400.2925784899769 735.5699051688875 414.53671133720525L735.5699051688875 414.53671133720525Q735.5699051688875 427.6074769192404 733.4141839142303 437.6220300896098Q731.2584626595731 447.63658325997915 727.4381971449909 454.51306118622733Q723.5906440195902 461.3895391124755 718.6242988506331 464.9369285188734Q713.6852412924945 468.4570303144528 708.2822943504423 468.4570303144528ZM708.2822943504423 461.3895391124755L708.2822943504423 461.3895391124755Q713.5760908492207 461.3895391124755 717.0143298123448 450.0378930120023Q720.452568775469 438.68624691152917 720.452568775469 414.53671133720525L720.452568775469 414.53671133720525Q720.452568775469 390.5509014277919 717.0143298123448 379.9905960410537Q713.5760908492207 369.43029065431546 708.2822943504423 369.43029065431546L708.2822943504423 369.43029065431546Q702.9612102408455 369.43029065431546 699.5229712777215 379.9905960410537Q696.0847323145974 390.5509014277919 696.0847323145974 414.53671133720525L696.0847323145974 414.53671133720525Q696.0847323145974 438.68624691152917 699.5229712777215 450.0378930120023Q702.9612102408455 461.3895391124755 708.2822943504423 461.3895391124755ZM777.1289364453794 468.37516748199744L777.1289364453794 468.37516748199744Q770.2524585191313 468.37516748199744 764.849511577079 463.95457452940934Q759.446564635027 459.53398157682125 755.7081619528999 451.92073815847505Q751.9970468815914 444.30749474012885 750.0323389026635 434.51124245630706Q748.0676309237354 424.7422777833037 748.0676309237354 414.0455343424732L748.0676309237354 414.0455343424732Q748.0676309237354 400.974768760438 750.7691043947614 391.28766691989Q753.4705778657874 381.6278526901604 757.7820203751019 375.24255175864425Q762.0934628844161 368.8572508271281 767.3053965507393 365.66460036137Q772.5173302170622 362.47194989561194 777.4291001643824 362.47194989561194L777.4291001643824 362.47194989561194Q784.0054143716277 362.47194989561194 788.5351577674894 366.2922154101943Q793.037613552533 370.139768535595 795.4116356937377 376.1703305264714Q797.7583702241238 382.20089251734777 797.7583702241238 388.8044943354115L797.7583702241238 388.8044943354115Q797.7583702241238 393.3069501204549 796.0392507425618 395.76283509411496Q794.3201312609999 398.21872006777505 791.2912064601524 398.21872006777505L791.2912064601524 398.21872006777505Q788.2349940484867 398.21872006777505 786.4612993452877 396.0629988131179Q784.6876046420887 393.9072775584607 784.6876046420887 390.35988815206287L784.6876046420887 390.35988815206287Q784.6876046420887 388.01315362167657 785.4243701341868 386.67606069157273Q786.1611356262847 385.3662553722874 786.8979011183828 383.9200119989098Q787.6346666104807 382.5010562363507 787.6346666104807 380.1543217059644L787.6346666104807 380.1543217059644Q787.6346666104807 375.05153848291513 784.9059055286364 372.1863393469784Q782.1498568359734 369.3484278218601 778.1112904348433 369.3484278218601L778.1112904348433 369.3484278218601Q774.1000116445321 369.3484278218601 771.2893877302322 373.2778437797162Q768.4787638159323 377.2072597375723 766.7596443343703 383.64713589072534Q765.0405248528082 390.05972443305996 764.3037593607103 397.89126873795374Q763.5669938686121 405.695525432029 763.5669938686121 413.4452069044674L763.5669938686121 413.4452069044674Q763.5669938686121 421.4131892634534 764.3037593607103 429.81777339553446Q765.0405248528082 438.19506991679714 766.7596443343703 445.3171363404113Q768.4787638159323 452.4392027640255 771.5349762275982 456.83250810579517Q774.5911886392639 461.1985258367464 779.2846577000366 461.1985258367464L779.2846577000366 461.1985258367464Q784.6057418096334 461.1985258367464 787.4982285563885 458.3333267008096Q790.3907153031437 455.4954151756914 791.8642462873397 451.18397266637703L791.8642462873397 451.18397266637703L796.8851666779337 455.38626473241754Q795.1114719747347 459.72499485255037 790.3088524706884 464.03643736186467Q785.4789453558235 468.37516748199744 777.1289364453794 468.37516748199744ZM841.7732864742759 466.3013090597956L806.0265163021127 466.3013090597956L806.0265163021127 459.6158444092766L816.5322464672142 459.6158444092766L816.5322464672142 370.0306180923212L806.0265163021127 370.0306180923212L806.0265163021127 363.454303885076L831.2675563091746 363.454303885076L831.2675563091746 459.6158444092766L841.7732864742759 459.6158444092766L841.7732864742759 466.3013090597956ZM823.7088881124653 344.9805913609886L823.7088881124653 344.9805913609886Q819.0699942733295 344.9805913609886 815.8773438075714 341.7879408952305Q812.6846933418133 338.59529042947247 812.6846933418133 334.0655470336106L812.6846933418133 334.0655470336106Q812.6846933418133 329.45394080529337 815.8773438075714 326.26129033953526Q819.0699942733295 323.06863987377716 823.7088881124653 323.06863987377716L823.7088881124653 323.06863987377716Q828.1294810650534 323.06863987377716 831.3221315308115 326.26129033953526Q834.5147819965696 329.45394080529337 834.5147819965696 334.0655470336106L834.5147819965696 334.0655470336106Q834.5147819965696 338.59529042947247 831.3221315308115 341.7879408952305Q828.1294810650534 344.9805913609886 823.7088881124653 344.9805913609886ZM870.5617158877355 468.37516748199744L870.5617158877355 468.37516748199744Q864.5584415076776 468.37516748199744 859.8922600577234 465.4281055136054Q855.2260786077693 462.4810435452133 852.4700299151064 456.7233576625214Q849.741268833262 450.96567177982945 849.741268833262 442.61566286938523L849.741268833262 442.61566286938523Q849.741268833262 433.5016008560246 853.3159458504781 427.44375125432975Q856.8906228676944 421.4131892634534 862.1571317556545 417.23818480823127Q867.4236406436144 413.06318035300916 872.7174371423926 409.679516611522Q878.011233641171 406.26856525921636 881.558623047569 402.5847377987263Q885.1060124539667 398.90091033823614 885.1060124539667 393.7162642827316L885.1060124539667 393.7162642827316Q885.1060124539667 386.3486093617514 883.959932799592 380.9729500305177Q882.8411407560359 375.6245783101025 880.2761053391021 372.7320915633473Q877.7383575329866 369.8396048165921 873.3996274128538 369.8396048165921L873.3996274128538 369.8396048165921Q868.4878574655336 369.8396048165921 865.3497822214124 372.9776800607133Q862.2117069772912 376.1157553048345 862.2117069772912 380.2361845384197L862.2117069772912 380.2361845384197Q862.2117069772912 382.41919340389535 862.8938972477524 383.7835739448176Q863.5760875182136 385.14795448573983 864.2309901778563 386.59419785911746Q864.8586052266805 388.01315362167657 864.8586052266805 390.46903859533666L864.8586052266805 390.46903859533666Q864.8586052266805 393.9072775584607 863.1394857451185 396.0629988131179Q861.4203662635564 398.21872006777505 858.2822910194352 398.21872006777505L858.2822910194352 398.21872006777505Q855.2260786077693 398.21872006777505 853.5069591262072 395.57182181838584Q851.7878396446451 392.9249235689967 851.7878396446451 388.2041668974057L851.7878396446451 388.2041668974057Q851.7878396446451 380.94566241969926 854.7894768346741 375.0788260937336Q857.7911140247031 369.23927737858634 863.2486361883921 365.8556136370991Q868.6788707412627 362.47194989561194 875.7736495540585 362.47194989561194L875.7736495540585 362.47194989561194Q883.032154031765 362.47194989561194 888.435100973817 365.7464631938254Q893.8380479158691 369.0482641028572 896.8396851058981 376.1703305264714Q899.8413222959271 383.29239695008556 899.8413222959271 394.9714943803801L899.8413222959271 394.9714943803801L899.8413222959271 452.7393664830284Q899.8413222959271 456.9689461598874 900.7145258421174 458.44247714408345Q901.5877293883077 459.91600812827943 903.3614240915065 459.91600812827943L903.3614240915065 459.91600812827943Q905.0259683514316 459.91600812827943 906.0628975625327 459.17924263618147Q907.0998267736336 458.44247714408345 907.5910037683655 457.84214970607763L907.5910037683655 457.84214970607763L911.1383931747635 463.4633975346773Q909.8558754662965 464.9369285188734 906.5540745572646 466.2467338381587Q903.2795612590512 467.5838267682625 899.0499815821922 467.5838267682625L899.0499815821922 467.5838267682625Q894.9295523486069 467.5838267682625 892.2280788775809 466.2467338381587Q889.5266054065548 464.9369285188734 888.189512476451 462.75391965339776Q886.8524195463472 460.5981983987406 886.5795434381628 458.0604505926252L886.5795434381628 458.0604505926252Q886.0883664434307 459.72499485255037 884.3146717402319 462.1808798262104Q882.5409770370329 464.63676479987043 879.239176128001 466.4923223355247Q875.9646628297876 468.37516748199744 870.5617158877355 468.37516748199744ZM874.3819814023179 459.72499485255037L874.3819814023179 459.72499485255037Q877.9293708087157 459.72499485255037 880.3306805607388 456.9143709382505Q882.731990312762 454.1310346347691 883.9053575779551 450.28348150936836Q885.1060124539667 446.463215994786 885.1060124539667 443.32514075066484L885.1060124539667 443.32514075066484L885.1060124539667 406.8688926972221Q884.8877115674193 409.6249413898851 881.804211544935 412.2718396392743Q878.7207115224505 414.9187378886635 874.8731583970498 418.4661272950613Q871.0528928824674 421.9862290906408 868.1058309140753 427.3891760326929Q865.1587689456833 432.792122974745 865.1587689456833 441.251282328463L865.1587689456833 441.251282328463Q865.1587689456833 450.28348150936836 867.5600786977066 455.0042381809593Q869.9613884497296 459.72499485255037 874.3819814023179 459.72499485255037ZM949.4501987638603 466.3013090597956L915.6408489598068 466.3013090597956L915.6408489598068 459.6158444092766L925.1642251354442 459.6158444092766L925.1642251354442 325.52452484743725L915.6408489598068 325.52452484743725L915.6408489598068 318.948210640192L939.8176721449493 318.948210640192L939.8176721449493 459.6158444092766L949.4501987638603 459.6158444092766L949.4501987638603 466.3013090597956ZM982.1407565243576 466.3013090597956L956.5176899658377 466.3013090597956L956.5176899658377 459.6158444092766L965.549889146743 459.6158444092766L965.549889146743 335.3480647420775L956.5176899658377 335.3480647420775L956.5176899658377 328.7717505348322L984.0236016708304 328.7717505348322L1014.0672611819384 433.99277785075657L1013.3850709114772 433.99277785075657L1013.3850709114772 335.3480647420775L1004.4620221738458 335.3480647420775L1004.4620221738458 328.7717505348322L1028.9117214671726 328.7717505348322L1028.9117214671726 335.3480647420775L1020.1796860052702 335.3480647420775L1020.1796860052702 466.3013090597956L1007.9002611369699 466.3013090597956L971.5531635268007 339.38663114320735L972.4263670729911 339.38663114320735L972.4263670729911 459.6158444092766L982.1407565243576 459.6158444092766L982.1407565243576 466.3013090597956ZM1064.1673146446035 468.37516748199744L1064.1673146446035 468.37516748199744Q1057.0998234426263 468.37516748199744 1051.9424649979403 464.14558780513846Q1046.785106553254 459.91600812827943 1043.537880865859 452.4937779856624Q1040.3179427892826 445.0715478430453 1038.7352613618127 435.3571583916788Q1037.152579934343 425.6427689403124 1037.152579934343 414.6185741696606L1037.152579934343 414.6185741696606Q1037.152579934343 401.46594575517 1039.362876410637 391.6424058605298Q1041.5731728869312 381.81886596588953 1045.366150790695 375.3244145910996Q1049.1591286944588 368.8572508271281 1053.9617481985051 365.66460036137Q1058.7643677025515 362.47194989561194 1064.0854518121482 362.47194989561194L1064.0854518121482 362.47194989561194Q1070.2797394679353 362.47194989561194 1074.8367704746156 366.155777356102Q1079.393801481296 369.8396048165921 1082.340863449688 376.1157553048345Q1085.28792541808 382.41919340389535 1086.7614564022763 390.30531293042594Q1088.2349873864723 398.21872006777505 1088.2349873864723 406.677879421493L1088.2349873864723 406.677879421493Q1088.2349873864723 408.7244502328764 1088.2076997756537 410.7437334334413Q1088.153124554017 412.76301663400625 1088.0439741107432 414.72772461293437L1088.0439741107432 414.72772461293437L1050.823672954384 414.72772461293437L1050.823672954384 408.15141040568903L1073.7998412635147 408.15141040568903Q1073.7998412635147 395.76283509411496 1072.9266377173246 387.08537485384943Q1072.026146560316 378.38062700276544 1069.9250005272954 373.7690207744482Q1067.8238544942753 369.157414546131 1064.0854518121482 369.157414546131L1064.0854518121482 369.157414546131Q1060.5380624057505 369.157414546131 1057.8365889347244 373.7690207744482Q1055.1351154636982 378.38062700276544 1053.6615844795022 387.7675651243106Q1052.1880534953061 397.15450324585566 1052.1880534953061 411.6715122012685L1052.1880534953061 411.6715122012685Q1052.1880534953061 422.3955432529174 1052.788380933312 431.42774243382274Q1053.3614207604994 440.4599416147281 1054.8349517446954 447.1454062652472Q1056.3084827288915 453.8308709157662 1058.9826685890991 457.5146983762563Q1061.6295668384882 461.1985258367464 1065.6408456287998 461.1985258367464L1065.6408456287998 461.1985258367464Q1071.7532704521313 461.1985258367464 1075.1369341936186 457.6511364303485Q1078.5205979351058 454.1310346347691 1079.8031156435727 450.77465850410033L1079.8031156435727 450.77465850410033L1085.588089137083 454.1310346347691Q1083.7325316014287 459.6158444092766 1077.8929828862815 463.9818621402278Q1072.026146560316 468.37516748199744 1064.1673146446035 468.37516748199744ZM1123.599731007177 468.0750037629946L1123.599731007177 468.0750037629946Q1119.479301773592 468.0750037629946 1115.5498858157357 466.60147277879855Q1111.6204698578797 465.12794179460246 1109.1645848842197 461.1439506151095Q1106.7086999105595 457.15995943561654 1106.7086999105595 449.4921407956334L1106.7086999105595 449.4921407956334L1106.7086999105595 370.0306180923212L1094.23826176653 370.0306180923212L1094.23826176653 363.454303885076L1106.7086999105595 363.454303885076Q1108.8644211652168 360.9984189114159 1110.5562530359603 356.3868126830987Q1112.2207972958854 351.747918843963 1113.2577265069865 346.2085338478186Q1114.267368107269 340.66914885167427 1114.6766822695456 335.3480647420775L1114.6766822695456 335.3480647420775L1121.44400975252 335.3480647420775L1121.44400975252 363.454303885076L1136.0974567620249 363.454303885076L1136.0974567620249 370.0306180923212L1121.44400975252 370.0306180923212L1121.44400975252 454.3220479104982Q1121.44400975252 458.44247714408345 1123.163129234082 459.80685768500564Q1124.882248715644 461.1985258367464 1126.5467929755691 461.1985258367464L1126.5467929755691 461.1985258367464Q1128.5115009544973 461.1985258367464 1129.903169106238 460.3526099013746Q1131.2675496471602 459.53398157682125 1132.058890360895 458.6334904198126L1132.058890360895 458.6334904198126L1135.8791558754774 463.84542408613555Q1133.9144478965493 465.6191187893345 1130.830947874065 466.8470612761645Q1127.7474478515808 468.0750037629946 1123.599731007177 468.0750037629946ZM1213.8944352054118 466.6833356112538L1202.7883776023048 466.6833356112538L1187.0707137708805 370.0306180923212L1178.7207048604362 370.0306180923212L1178.7207048604362 363.454303885076L1209.2828289770948 363.454303885076L1209.2828289770948 370.0306180923212L1202.2972006075727 370.0306180923212L1211.82057678321 440.07791506326987L1221.5622538453952 370.0306180923212L1214.876789194876 370.0306180923212L1214.876789194876 363.454303885076L1236.4885769630846 363.454303885076L1236.4885769630846 370.0306180923212L1228.8207583231015 370.0306180923212L1213.8944352054118 466.6833356112538ZM1174.7912889025802 466.6833356112538L1163.685231299473 466.6833356112538L1148.6497577385096 370.0306180923212L1140.7909258227976 370.0306180923212L1140.7909258227976 363.454303885076L1171.5440632151851 363.454303885076L1171.5440632151851 370.0306180923212L1164.367421569934 370.0306180923212L1172.935731366926 440.07791506326987L1183.2504482562981 370.0306180923212L1178.338678308978 370.0306180923212L1178.338678308978 363.454303885076L1198.749811201175 363.454303885076L1198.749811201175 370.0306180923212L1190.3998022907308 370.0306180923212L1174.7912889025802 466.6833356112538ZM1270.2706391563197 468.4570303144528L1270.2706391563197 468.4570303144528Q1264.8676922142677 468.4570303144528 1259.9559222669473 464.9369285188734Q1255.0441523196273 461.3895391124755 1251.223886805045 454.51306118622733Q1247.3763336796442 447.63658325997915 1245.220612424987 437.6220300896098Q1243.0648911703297 427.6074769192404 1243.0648911703297 414.53671133720525L1243.0648911703297 414.53671133720525Q1243.0648911703297 400.2925784899769 1245.3843380898977 390.35988815206287Q1247.676497398647 380.4544854249673 1251.5513381348665 374.3147729908171Q1255.453466481904 368.17506055666695 1260.3106612075871 365.3098614207302Q1265.1678559332704 362.47194989561194 1270.2706391563197 362.47194989561194L1270.2706391563197 362.47194989561194Q1275.373422379369 362.47194989561194 1280.2579047158706 365.3098614207302Q1285.1150994415539 368.17506055666695 1289.0445153994096 374.3147729908171Q1292.9739313572659 380.4544854249673 1295.2660906660153 390.35988815206287Q1297.585537585583 400.2925784899769 1297.585537585583 414.53671133720525L1297.585537585583 414.53671133720525Q1297.585537585583 427.6074769192404 1295.429816330926 437.6220300896098Q1293.2740950762688 447.63658325997915 1289.426541950868 454.51306118622733Q1285.606276436286 461.3895391124755 1280.6399312673288 464.9369285188734Q1275.6735860983717 468.4570303144528 1270.2706391563197 468.4570303144528ZM1270.2706391563197 461.3895391124755L1270.2706391563197 461.3895391124755Q1275.5917232659165 461.3895391124755 1279.0299622290404 450.0378930120023Q1282.4682011921645 438.68624691152917 1282.4682011921645 414.53671133720525L1282.4682011921645 414.53671133720525Q1282.4682011921645 390.5509014277919 1279.0299622290404 379.9905960410537Q1275.5917232659165 369.43029065431546 1270.2706391563197 369.43029065431546L1270.2706391563197 369.43029065431546Q1264.9768426575413 369.43029065431546 1261.5386036944171 379.9905960410537Q1258.1003647312932 390.5509014277919 1258.1003647312932 414.53671133720525L1258.1003647312932 414.53671133720525Q1258.1003647312932 438.68624691152917 1261.5386036944171 450.0378930120023Q1264.9768426575413 461.3895391124755 1270.2706391563197 461.3895391124755ZM1341.0001263977294 466.3013090597956L1305.7445332202983 466.3013090597956L1305.7445332202983 459.6158444092766L1315.950099666397 459.6158444092766L1315.950099666397 370.0306180923212L1305.7445332202983 370.0306180923212L1305.7445332202983 363.454303885076L1329.5120422431642 363.454303885076L1330.303382956899 373.08683050398713Q1330.6035466759017 371.8861756279755 1332.3499537682824 369.3484278218601Q1334.1236484714814 366.78339240492625 1337.234436104784 364.6276711502691Q1340.3179361272682 362.47194989561194 1344.6293786365825 362.47194989561194L1344.6293786365825 362.47194989561194Q1349.6502990271765 362.47194989561194 1352.7337990496608 365.8556136370991Q1355.8445866829634 369.23927737858634 1357.3181176671596 374.99696326127827Q1358.7916486513554 380.72736153315174 1358.7916486513554 387.9040031784028L1358.7916486513554 387.9040031784028Q1358.7916486513554 393.006786401452 1357.0179539481567 395.62639704002277Q1355.2442592449577 398.21872006777505 1352.1061840008365 398.21872006777505L1352.1061840008365 398.21872006777505Q1349.2682724757183 398.21872006777505 1347.549152994156 396.11757403475474Q1345.8300335125941 393.9891403909161 1345.8300335125941 389.86871115733084L1345.8300335125941 389.86871115733084Q1345.8300335125941 387.41282618367075 1346.6486618371475 385.9392951994747Q1347.4945777725193 384.4657642152787 1348.2313432646174 382.80121995535353Q1348.9681087567155 381.1366756954284 1348.9681087567155 378.2714765594917L1348.9681087567155 378.2714765594917Q1348.9681087567155 373.96003405017734 1347.4400025508826 371.9953260712493Q1345.9118963450496 370.0306180923212 1343.1558476523867 370.0306180923212L1343.1558476523867 370.0306180923212Q1339.6357458568073 370.0306180923212 1336.7705467208702 373.2232685580793Q1333.932635195752 376.41591902383743 1332.3226661574638 381.6278526901604Q1330.6854095083572 386.83978635648344 1330.6854095083572 392.8157731257229L1330.6854095083572 392.8157731257229L1330.6854095083572 459.6158444092766L1341.0001263977294 459.6158444092766L1341.0001263977294 466.3013090597956ZM1398.0858082299167 466.3013090597956L1365.4771133018746 466.3013090597956L1365.4771133018746 459.6158444092766L1375.491666472244 459.6158444092766L1375.491666472244 325.52452484743725L1365.4771133018746 325.52452484743725L1365.4771133018746 318.948210640192L1390.2269763142044 318.948210640192L1390.2269763142044 400.7837554847089L1409.764905660211 370.0306180923212L1401.114733030764 370.0306180923212L1401.114733030764 363.454303885076L1426.6559367568286 363.454303885076L1426.6559367568286 370.0306180923212L1417.541874743468 370.0306180923212L1403.6797684476978 393.49796339618405L1426.9561004758316 459.6158444092766L1435.4152598295495 459.6158444092766L1435.4152598295495 466.3013090597956L1402.5064011825048 466.3013090597956L1402.5064011825048 459.6158444092766L1410.747259649675 459.6158444092766L1392.4918480121355 407.8512466866862L1390.2269763142044 412.9540299097354L1390.2269763142044 459.6158444092766L1398.0858082299167 459.6158444092766L1398.0858082299167 466.3013090597956Z " fill="#32fbe2" transform="matrix(0.6095796876618451,0,0,0.6095796876618453,0,59.85717781879653)"/></g></svg>