<svg xmlns="http://www.w3.org/2000/svg" version="1.1" xmlns:xlink="http://www.w3.org/1999/xlink" xmlns:svgjs="http://svgjs.dev/svgjs" width="100%" height="100%" viewBox="0 0 1000 600"><rect width="1000" height="600" x="0" y="0" fill="#1a0933"/><g><rect width="333.3333333333333" height="333.3333333333333" rx="13.333333333333334" ry="13.333333333333334" y="311.01005324700924" fill="#32fbe2" transform="matrix(0.43284365423227955,0,0,0.43284365423227944,0,93.24065126256794)" x="288.7878723144531"/><path d="M325.6291195557045 447.63803010857885L325.6291195557045 447.63803010857885Q325.6291195557045 438.3244018320237 329.199839661732 430.1712575899274Q332.740803766876 422.0181133478312 338.87053994889 415.88837716581725Q345.00027613090396 409.7883969846868 353.1534203730002 406.21767687865935Q361.3065646150964 402.67671277351536 370.6201928916516 402.67671277351536L370.6201928916516 402.67671277351536L439.44582293533256 402.67671277351536L439.44582293533256 432.7005176650303L370.6201928916516 432.7005176650303Q367.4958127988775 432.7005176650303 364.7582607175897 433.8312456986057Q362.0504646371855 434.99172973306463 359.99730057621963 437.0151377931469Q357.97389251613737 439.06830185411275 356.8134084816784 441.77609793451694Q355.65292444721945 444.5136500158047 355.65292444721945 447.63803010857885L355.65292444721945 447.63803010857885Q355.65292444721945 450.7921662022365 356.8134084816784 453.5594742844079Q357.97389251613737 456.3267823665792 359.99730057621963 458.37994642754506Q362.0504646371855 460.4033544876273 364.7582607175897 461.56383852208626Q367.4958127988775 462.72432255654525 370.6201928916516 462.72432255654525L370.6201928916516 462.72432255654525L400.6439977831666 462.72432255654525Q409.95762605972175 462.72432255654525 418.1702823035851 466.2057746599221Q426.3829385474485 469.7169827641825 432.48291872857885 475.84671894619646Q438.6126549105928 481.94669912732684 442.1238630148532 490.15935537119026Q445.63507111911366 498.37201161505357 445.63507111911366 507.6856398916088L445.63507111911366 507.6856398916088Q445.63507111911366 516.999268168164 442.1238630148532 525.1524124102602Q438.6126549105928 533.33531265324 432.48291872857885 539.4352928343703Q426.3829385474485 545.5650290163843 418.1702823035851 549.1059931215283Q409.95762605972175 552.6767132275559 400.6439977831666 552.6767132275559L400.6439977831666 552.6767132275559L334.0203118048692 552.6767132275559L334.0203118048692 522.6529083360409L400.6439977831666 522.6529083360409Q403.76837787594064 522.6529083360409 406.50592995722843 521.4924243015819Q409.2137260376327 520.3616962680065 411.26689009859854 518.3085322070408Q413.2902981586808 516.2851241469584 414.45078219313973 513.5475720656707Q415.61126622759866 510.83977598526644 415.61126622759866 507.6856398916088L415.61126622759866 507.6856398916088Q415.61126622759866 504.56125979883467 414.45078219313973 501.8237077175469Q413.2902981586808 499.11591163714263 411.26689009859854 497.06274757617683Q409.2137260376327 495.0393395160945 406.50592995722843 493.8788554816356Q403.76837787594064 492.7481274480602 400.6439977831666 492.7481274480602L400.6439977831666 492.7481274480602L370.6201928916516 492.7481274480602Q361.3065646150964 492.7481274480602 353.1534203730002 489.17740734203267Q345.00027613090396 485.6066872360051 338.87053994889 479.5067070548747Q332.740803766876 473.37697087286074 329.199839661732 465.1643146289974Q325.6291195557045 456.951658385134 325.6291195557045 447.63803010857885ZM585.2799832656743 402.67671277351536L585.2799832656743 552.6767132275559L553.1732583123099 552.6767132275559L495.32759259466366 453.9165462950106L495.32759259466366 552.6767132275559L465.3037877031487 552.6767132275559L465.3037877031487 402.67671277351536L497.4105126565131 402.67671277351536L555.2561783741594 501.5261477087113L555.2561783741594 402.67671277351536L585.2799832656743 402.67671277351536Z " fill="#1a0933" transform="matrix(0.43284365423227955,0,0,0.43284365423227944,0,93.24065126256794)"/><path d="M705.4545437571167 454.4591804943932L705.4545437571167 454.4591804943932Q705.4545437571167 445.9197115255125 708.7284615726619 438.4442658466841Q711.9750967397445 430.96882016785565 717.5953223230972 425.3485945845029Q723.21554790645 419.755651649613 730.6909935852784 416.4817338340677Q738.1664392641069 413.2350986669853 746.7059082329874 413.2350986669853L746.7059082329874 413.2350986669853L809.8106741276231 413.2350986669853L809.8106741276231 440.7632909660287L746.7059082329874 440.7632909660287Q743.8412301443853 440.7632909660287 741.3312264858006 441.80003160761805Q738.8485054756787 442.86405489767026 736.9660027317402 444.719274993146Q735.1107826362645 446.6017777370845 734.0467593462123 449.08449874720634Q732.9827360561601 451.5945024057911 732.9827360561601 454.4591804943932L732.9827360561601 454.4591804943932Q732.9827360561601 457.3511412314582 734.0467593462123 459.8884275385058Q735.1107826362645 462.42571384555345 736.9660027317402 464.308216589492Q738.8485054756787 466.1634366849677 741.3312264858006 467.2274599750199Q743.8412301443853 468.2914832650721 746.7059082329874 468.2914832650721L746.7059082329874 468.2914832650721L774.2341005320309 468.2914832650721Q782.7735695009115 468.2914832650721 790.3035804766657 471.48355313522876Q797.8335914524199 474.70290565384835 803.4265343873099 480.3231312372011Q809.0467599706626 485.916074172091 812.266112489282 493.44608514784517Q815.4854650079017 500.97609612359935 815.4854650079017 509.51556509248L815.4854650079017 509.51556509248Q815.4854650079017 518.0550340613606 812.266112489282 525.5304797401891Q809.0467599706626 533.0332080674805 803.4265343873099 538.6261510023703Q797.8335914524199 544.246376585723 790.3035804766657 547.4930117528055Q782.7735695009115 550.7669295683509 774.2341005320309 550.7669295683509L774.2341005320309 550.7669295683509L713.1482506236482 550.7669295683509L713.1482506236482 523.2387372693074L774.2341005320309 523.2387372693074Q777.0987786206331 523.2387372693074 779.6087822792177 522.1747139792551Q782.0915032893396 521.1379733376658 783.9740060332781 519.2554705937273Q785.8292261287538 517.4002504982516 786.893249418806 514.8902468396669Q787.9572727088582 512.407525829545 787.9572727088582 509.51556509248L787.9572727088582 509.51556509248Q787.9572727088582 506.65088700387787 786.893249418806 504.1408833452931Q785.8292261287538 501.6581623351713 783.9740060332781 499.77565959123274Q782.0915032893396 497.9204394957571 779.6087822792177 496.8564162057048Q777.0987786206331 495.8196755641155 774.2341005320309 495.8196755641155L774.2341005320309 495.8196755641155L746.7059082329874 495.8196755641155Q738.1664392641069 495.8196755641155 730.6909935852784 492.54575774857017Q723.21554790645 489.2718399330249 717.5953223230972 483.67889699813503Q711.9750967397445 478.0586714147822 708.7284615726619 470.52866043902804Q705.4545437571167 462.99864946327386 705.4545437571167 454.4591804943932ZM929.9907406065986 498.49337511347755L929.9907406065986 498.49337511347755Q929.9907406065986 510.0066527648118 925.8710606887041 519.9375368052993Q921.7513807708096 529.8684208457867 914.6578921704615 537.0983226884491Q907.5644035701132 544.3282245311117 898.0154766081062 548.502469745932Q888.4665496460989 552.6767149607522 877.5262076124852 552.6767149607522L877.5262076124852 552.6767149607522Q866.6949961727228 552.6767149607522 857.1460692107157 548.502469745932Q847.5971422487085 544.3282245311117 840.4763709998974 537.0983226884491Q833.3283171026235 529.8684208457867 829.1813545362661 519.9375368052993Q825.0616746183716 510.0066527648118 825.0616746183716 498.49337511347755L825.0616746183716 498.49337511347755Q825.0616746183716 486.78911892290307 829.1813545362661 476.8036695854899Q833.3283171026235 466.8455028965396 840.4763709998974 459.58831840541416Q847.5971422487085 452.35841656275164 857.1460692107157 448.23873664485717Q866.6949961727228 444.11905672696264 877.5262076124852 444.11905672696264L877.5262076124852 444.11905672696264Q888.4665496460989 444.11905672696264 898.0154766081062 447.9931928086912Q907.5644035701132 451.86732889041986 914.6578921704615 459.01538278769374Q921.7513807708096 466.1634366849677 925.8710606887041 476.2034513193066Q929.9907406065986 486.21618330518265 929.9907406065986 498.49337511347755ZM903.6357021914589 498.49337511347755L903.6357021914589 498.49337511347755Q903.6357021914589 492.1638006700899 901.5622209082801 487.03466275906896Q899.4887396251015 481.905524848048 895.9419953249273 478.19508465709663Q892.3952510247534 474.51192711460817 887.6480701922126 472.547576425281Q882.900889359672 470.5832257359538 877.5262076124852 470.5832257359538L877.5262076124852 470.5832257359538Q872.1515258652983 470.5832257359538 867.4043450327576 472.547576425281Q862.6571642002168 474.51192711460817 859.1649851969685 478.19508465709663Q855.6728061937204 481.905524848048 853.6538902074674 487.03466275906896Q851.6349742212144 492.1638006700899 851.6349742212144 498.49337511347755L851.6349742212144 498.49337511347755Q851.6349742212144 504.44099247838477 853.6538902074674 509.51556509248Q855.6728061937204 514.6174203550381 859.1649851969685 518.3551431944524Q862.6571642002168 522.0928660338666 867.4043450327576 524.2481952624339Q872.1515258652983 526.4035244910012 877.5262076124852 526.4035244910012L877.5262076124852 526.4035244910012Q882.900889359672 526.4035244910012 887.6480701922126 524.3846085047483Q892.3952510247534 522.3656925184953 895.9419953249273 518.7371002729326Q899.4887396251015 515.081225378907 901.5622209082801 509.8975221709603Q903.6357021914589 504.7138189630136 903.6357021914589 498.49337511347755ZM1034.2650230317165 468.48246180431227L1034.2650230317165 468.48246180431227L1015.0853211623134 487.7440116191038Q1013.639340793781 483.7334622950608 1011.1566197836592 480.5141097764412Q1008.6466161250744 477.2947572578217 1005.5363942003064 475.0848627323286Q1002.4261722755384 472.87496820683555 998.7702973815128 471.7290969713947Q995.1144224874872 470.5832257359538 991.2948517026844 470.5832257359538L991.2948517026844 470.5832257359538Q985.9201699554974 470.5832257359538 981.1729891229568 472.7931202614469Q976.4258082904162 475.00301478693996 972.9336292871678 478.9862814625201Q969.4141676354566 482.94226548963735 967.3952516492036 488.4260778306757Q965.4036183114135 493.8826075232512 965.4036183114135 500.5122910997304L965.4036183114135 500.5122910997304Q965.4036183114135 505.88697284691733 967.3952516492036 510.5795883825322Q969.4141676354566 515.2722039181472 972.9336292871678 518.8189482183212Q976.4258082904162 522.3656925184953 981.1729891229568 524.3846085047483Q985.9201699554974 526.4035244910012 991.2948517026844 526.4035244910012L991.2948517026844 526.4035244910012Q995.1144224874872 526.4035244910012 998.6884494361241 525.3395012009489Q1002.2351937362982 524.3027605593596 1005.3454156610662 522.3384098700325Q1008.4556375858344 520.3740591807052 1010.9110759474934 517.536663740566Q1013.3392316606894 514.6992683004268 1014.8943426230735 511.2616545941042L1014.8943426230735 511.2616545941042L1034.0740444924763 530.5232044088957Q1030.4181695984507 535.7069076168425 1025.67098876591 539.826587534737Q1020.9238079333693 543.9462674526314 1015.412712943868 546.8382281896965Q1009.9016179543669 549.7029062782985 1003.817587347145 551.2034519437568Q997.7062740914605 552.6767149607522 991.2948517026844 552.6767149607522L991.2948517026844 552.6767149607522Q980.4636402629219 552.6767149607522 970.9147133009149 548.6116003397835Q961.3657863389078 544.5192030703519 954.2177324416339 537.4257144700038Q947.0696785443599 530.3322258696555 942.9499986264655 520.8378642045742Q938.830318708571 511.3435025394928 938.830318708571 500.5122910997304L938.830318708571 500.5122910997304Q938.830318708571 488.6989043153045 942.9499986264655 478.4406284932626Q947.0696785443599 468.1823526712206 954.2177324416339 460.5704937500778Q961.3657863389078 452.93135218047206 970.9147133009149 448.5115631294859Q980.4636402629219 444.11905672696264 991.2948517026844 444.11905672696264L991.2948517026844 444.11905672696264Q997.7062740914605 444.11905672696264 1003.8994352925338 445.7287329862724Q1010.0925964936068 447.3656918940451 1015.7128220769598 450.4759138188131Q1021.3057650118496 453.613418392044 1026.0529458443903 458.1150553884188Q1030.800126676931 462.61669238479357 1034.2650230317165 468.48246180431227ZM1077.8899779238575 420.1376087280933L1077.8899779238575 420.1376087280933Q1077.8899779238575 423.766200973656 1076.4985628522509 426.9309881953498Q1075.107147780644 430.0957754170436 1072.7335573643736 432.44208318485107Q1070.3326842996405 434.81567360112143 1067.1133317810209 436.20708867272816Q1063.8939792624014 437.59850374433495 1060.2653870168388 437.59850374433495L1060.2653870168388 437.59850374433495Q1056.6095121228132 437.59850374433495 1053.3901596041935 436.20708867272816Q1050.170807085574 434.81567360112143 1047.8244993177666 432.44208318485107Q1045.478191549959 430.0957754170436 1044.0867764783522 426.9309881953498Q1042.6953614067456 423.766200973656 1042.6953614067456 420.1376087280933L1042.6953614067456 420.1376087280933Q1042.6953614067456 416.59086442791926 1044.0867764783522 413.3715119092997Q1045.478191549959 410.15215939068014 1047.8244993177666 407.8058516228727Q1050.170807085574 405.4595438550652 1053.3901596041935 404.06812878345846Q1056.6095121228132 402.67671371185173 1060.2653870168388 402.67671371185173L1060.2653870168388 402.67671371185173Q1063.8939792624014 402.67671371185173 1067.1133317810209 404.06812878345846Q1070.3326842996405 405.4595438550652 1072.7335573643736 407.8058516228727Q1075.107147780644 410.15215939068014 1076.4985628522509 413.3715119092997Q1077.8899779238575 416.59086442791926 1077.8899779238575 420.1376087280933ZM1073.388340927483 448.047758105617L1073.388340927483 550.7669295683509L1047.0060198638803 550.7669295683509L1047.0060198638803 448.047758105617L1073.388340927483 448.047758105617ZM1192.8044932494977 448.23873664485717L1192.8044932494977 550.7669295683509L1186.47491880611 550.7669295683509L1176.2984909294569 536.6618003130432Q1172.5607680900425 540.017566073977 1168.3865228752222 542.936809459505Q1164.2395603088648 545.8833354934957 1159.6287927186386 548.038664722063Q1155.0180251284123 550.1939939506303 1150.16171370202 551.4489957799227Q1145.3326849240907 552.6767149607522 1140.339960255384 552.6767149607522L1140.339960255384 552.6767149607522Q1129.5087488156219 552.6767149607522 1119.9598218536146 549.0481227151895Q1110.4108948916075 545.3922478211639 1103.2628409943336 538.4351724631301Q1096.1147870970597 531.4780971050964 1091.9951071791652 521.4107998222946Q1087.8754272612707 511.3435025394928 1087.8754272612707 498.49337511347755L1087.8754272612707 498.49337511347755Q1087.8754272612707 486.51629243827426 1091.9951071791652 476.4762778039354Q1096.1147870970597 466.4635458180593 1103.2628409943336 459.26092662385963Q1110.4108948916075 452.05830742966 1119.9598218536146 448.10232340254277Q1129.5087488156219 444.11905672696264 1140.339960255384 444.11905672696264L1140.339960255384 444.11905672696264Q1145.3326849240907 444.11905672696264 1150.2162789989459 445.3467759077921Q1155.1271557222638 446.6017777370845 1159.710640664027 448.8116722625776Q1164.3214082542536 451.02156678807063 1168.4956534690737 453.9953754705243Q1172.669898683894 456.96918415297796 1176.2984909294569 460.4067978593005L1176.2984909294569 460.4067978593005L1186.47491880611 448.23873664485717L1192.8044932494977 448.23873664485717ZM1166.422172185895 498.49337511347755L1166.422172185895 498.49337511347755Q1166.422172185895 493.11869336629064 1164.3759735511792 488.09868604912117Q1162.3024922680006 483.05139608348884 1158.7557479678264 479.17726000176026Q1155.2090036676523 475.27584127156877 1150.4618228351117 472.92953350376126Q1145.714642002571 470.5832257359538 1140.339960255384 470.5832257359538L1140.339960255384 470.5832257359538Q1134.9652785081973 470.5832257359538 1130.2180976756565 472.4111631829666Q1125.470916843116 474.2391006299794 1121.9787378398676 477.7858449301535Q1118.4865588366192 481.3325892303276 1116.4676428503665 486.5435750867372Q1114.4487268641133 491.78184359160963 1114.4487268641133 498.49337511347755L1114.4487268641133 498.49337511347755Q1114.4487268641133 505.20490663534537 1116.4676428503665 510.4431751402179Q1118.4865588366192 515.6541609966275 1121.9787378398676 519.2009052968015Q1125.470916843116 522.7476495969756 1130.2180976756565 524.5755870439884Q1134.9652785081973 526.4035244910012 1140.339960255384 526.4035244910012L1140.339960255384 526.4035244910012Q1145.714642002571 526.4035244910012 1150.4618228351117 524.0572167231937Q1155.2090036676523 521.7109089553862 1158.7557479678264 517.8094902251948Q1162.3024922680006 513.9353541434662 1164.3759735511792 508.8880641778338Q1166.422172185895 503.8680568606644 1166.422172185895 498.49337511347755ZM1239.1304303394636 407.1783507082265L1239.1304303394636 550.7669295683509L1212.748109275861 550.7669295683509L1212.748109275861 407.1783507082265L1239.1304303394636 407.1783507082265ZM1371.8877977598256 413.2350986669853L1371.8877977598256 550.7669295683509L1342.4498200683806 550.7669295683509L1289.385068808084 460.2158193200604L1289.385068808084 550.7669295683509L1261.8568765090406 550.7669295683509L1261.8568765090406 413.2350986669853L1291.3221368489483 413.2350986669853L1344.3596054607824 503.8680568606644L1344.3596054607824 413.2350986669853L1371.8877977598256 413.2350986669853ZM1483.0373075975886 466.4635458180593L1433.9285403644092 525.6396103340406Q1435.483651326793 526.1034153579096 1437.0114796407142 526.2671112486868Q1438.5393079546352 526.4035244910012 1440.0671362685566 526.4035244910012L1440.0671362685566 526.4035244910012Q1443.9139897018222 526.4035244910012 1447.4607340019963 525.3395012009489Q1451.0074783021705 524.3027605593596 1454.1177002269383 522.3384098700325Q1457.2552048001694 520.3740591807052 1459.6833605133654 517.536663740566Q1462.1387988750243 514.6992683004268 1463.6666271889455 511.2616545941042L1463.6666271889455 511.2616545941042L1482.8463290583486 530.5232044088957Q1479.2177368127857 535.7069076168425 1474.470555980245 539.826587534737Q1469.7233751477042 543.9462674526314 1464.2122801582032 546.8382281896965Q1458.6739025202392 549.7029062782985 1452.5898719130173 551.2034519437568Q1446.5058413057955 552.6767149607522 1440.0671362685566 552.6767149607522L1440.0671362685566 552.6767149607522Q1429.235924828794 552.6767149607522 1419.686997866787 548.6661656367093Q1410.1653535532428 544.6283336642034 1403.0172996559688 537.4257144700038Q1395.869245758695 530.250377924267 1391.7495658408004 520.3194938837795Q1387.602603274443 510.3886098432921 1387.602603274443 498.49337511347755L1387.602603274443 498.49337511347755Q1387.602603274443 486.2980312505713 1391.7495658408004 476.2307339677695Q1395.869245758695 466.1634366849677 1403.0172996559688 459.0699480846195Q1410.1653535532428 451.97645948427134 1419.686997866787 448.047758105617Q1429.235924828794 444.11905672696264 1440.0671362685566 444.11905672696264L1440.0671362685566 444.11905672696264Q1446.5058413057955 444.11905672696264 1452.644437209943 445.6468850408838Q1458.7830331140904 447.1747133548049 1464.294128103592 450.0666740918699Q1469.805223093093 452.93135218047206 1474.6069692225592 457.10559739529236Q1479.4087153520259 461.2798426101126 1483.0373075975886 466.4635458180593L1483.0373075975886 466.4635458180593ZM1416.8768850751107 512.1074166964534L1447.3788860566078 471.6472490260061Q1445.5509486095948 470.9651828144341 1443.7775764595076 470.77420427519394Q1442.0042043094209 470.5832257359538 1440.0671362685566 470.5832257359538L1440.0671362685566 470.5832257359538Q1434.7197371698326 470.5832257359538 1429.9725563372917 472.547576425281Q1425.2253755047514 474.51192711460817 1421.7059138530399 478.16780200863377Q1418.2137348497918 481.79639425419646 1416.1948188635388 486.9255321652174Q1414.1759028772858 492.05467007623844 1414.1759028772858 498.49337511347755L1414.1759028772858 498.49337511347755Q1414.1759028772858 499.93935548201006 1414.3123161196002 501.7672929290228Q1414.4760120103774 503.56794772757274 1414.803403791932 505.45045047151126Q1415.1307955734865 507.3056705669869 1415.6218832458183 509.0517600686111Q1416.11297091815 510.7705669217724 1416.8768850751107 512.1074166964534L1416.8768850751107 512.1074166964534ZM1567.558952535583 550.7669295683509L1547.6971844546083 550.7669295683509Q1538.2028227895266 550.7669295683509 1529.8543323598863 547.165619971251Q1521.5058419302459 543.5643103741511 1515.230832783784 537.2893012276893Q1508.9558236373223 531.0142920812275 1505.3545140402225 522.665801651587Q1501.7532044431225 514.3173112219465 1501.7532044431225 504.82294955686507L1501.7532044431225 504.82294955686507L1501.7532044431225 474.32094857536805L1488.9849249624958 474.32094857536805L1488.9849249624958 448.23873664485717L1501.7532044431225 448.23873664485717L1501.7532044431225 407.1783507082265L1527.8354163736335 407.1783507082265L1527.8354163736335 448.23873664485717L1567.558952535583 448.23873664485717L1567.558952535583 474.32094857536805L1527.8354163736335 474.32094857536805L1527.8354163736335 504.82294955686507Q1527.8354163736335 508.9426294747596 1529.3632446875545 512.5439390718594Q1530.9183556499383 516.1452486689593 1533.5920551993006 518.8189482183212Q1536.2930373971253 521.519930416146 1539.921629642688 523.1023240269931Q1543.5775045367138 524.6847176378399 1547.6971844546083 524.6847176378399L1547.6971844546083 524.6847176378399L1567.558952535583 524.6847176378399L1567.558952535583 550.7669295683509ZM1711.911445552668 448.23873664485717L1711.911445552668 513.6352450103745Q1711.911445552668 521.7109089553862 1708.8285062763628 528.8589628526602Q1705.7728496485206 536.0070167499341 1700.4527331982595 541.2725679032694Q1695.1053340995354 546.5381190566048 1687.9845628507244 549.62105833291Q1680.8365089534504 552.6767149607522 1672.6789970630502 552.6767149607522L1672.6789970630502 552.6767149607522Q1665.394529923462 552.6767149607522 1658.682998401594 550.1394286537046Q1651.944184231263 547.602142346657 1646.4876545386878 542.718548271802L1646.4876545386878 542.718548271802Q1641.1129727915009 547.602142346657 1634.4560065665587 550.1394286537046Q1627.7990403416165 552.6767149607522 1620.4054426081766 552.6767149607522L1620.4054426081766 552.6767149607522Q1612.2479307177764 552.6767149607522 1605.1544421174283 549.62105833291Q1598.0609535170802 546.5381190566048 1592.740837066819 541.2725679032694Q1587.393437968095 536.0070167499341 1584.3377813402526 528.8589628526602Q1581.2548420639478 521.7109089553862 1581.2548420639478 513.6352450103745L1581.2548420639478 513.6352450103745L1581.2548420639478 448.23873664485717L1607.4461845883097 448.23873664485717L1607.4461845883097 513.6352450103745Q1607.4461845883097 516.3362272081994 1608.4556425814362 518.6825349760069Q1609.465100574563 521.0288427438143 1611.2384727246501 522.8022148939014Q1613.011844874737 524.5755870439884 1615.3581526425446 525.5850450371149Q1617.7044604103519 526.5945030302414 1620.4054426081766 526.5945030302414L1620.4054426081766 526.5945030302414Q1623.0791421575389 526.5945030302414 1625.480015222272 525.5850450371149Q1627.8808882870053 524.5755870439884 1629.708825734018 522.8022148939014Q1631.536763181031 521.0288427438143 1632.5462211741574 518.6825349760069Q1633.528396518821 516.3362272081994 1633.528396518821 513.6352450103745L1633.528396518821 513.6352450103745L1633.528396518821 448.23873664485717L1659.6378910977946 448.23873664485717L1659.6378910977946 513.6352450103745Q1659.6378910977946 516.3362272081994 1660.674631739384 518.6825349760069Q1661.7386550294364 521.0288427438143 1663.512027179523 522.8022148939014Q1665.2853993296103 524.5755870439884 1667.6317070974178 525.5850450371149Q1669.9780148652253 526.5945030302414 1672.6789970630502 526.5945030302414L1672.6789970630502 526.5945030302414Q1675.3526966124123 526.5945030302414 1677.7535696771454 525.5850450371149Q1680.1544427418785 524.5755870439884 1681.9278148919657 522.8022148939014Q1683.7011870420524 521.0288427438143 1684.7652103321047 518.6825349760069Q1685.8019509736941 516.3362272081994 1685.8019509736941 513.6352450103745L1685.8019509736941 513.6352450103745L1685.8019509736941 448.23873664485717L1711.911445552668 448.23873664485717ZM1830.1544439907789 498.49337511347755L1830.1544439907789 498.49337511347755Q1830.1544439907789 510.0066527648118 1826.0347640728846 519.9375368052993Q1821.9150841549904 529.8684208457867 1814.821595554642 537.0983226884491Q1807.7281069542937 544.3282245311117 1798.1791799922867 548.502469745932Q1788.6302530302796 552.6767149607522 1777.6899109966657 552.6767149607522L1777.6899109966657 552.6767149607522Q1766.858699556903 552.6767149607522 1757.309772594896 548.502469745932Q1747.7881282813519 544.3282245311117 1740.6400743840777 537.0983226884491Q1733.492020486804 529.8684208457867 1729.3723405689093 519.9375368052993Q1725.2253780025521 510.0066527648118 1725.2253780025521 498.49337511347755L1725.2253780025521 498.49337511347755Q1725.2253780025521 486.78911892290307 1729.3723405689093 476.8036695854899Q1733.492020486804 466.8455028965396 1740.6400743840777 459.58831840541416Q1747.7881282813519 452.35841656275164 1757.309772594896 448.23873664485717Q1766.858699556903 444.11905672696264 1777.6899109966657 444.11905672696264L1777.6899109966657 444.11905672696264Q1788.6302530302796 444.11905672696264 1798.1791799922867 447.9931928086912Q1807.7281069542937 451.86732889041986 1814.821595554642 459.01538278769374Q1821.9150841549904 466.1634366849677 1826.0347640728846 476.2034513193066Q1830.1544439907789 486.21618330518265 1830.1544439907789 498.49337511347755ZM1803.7994055756394 498.49337511347755L1803.7994055756394 498.49337511347755Q1803.7994055756394 492.1638006700899 1801.7259242924606 487.03466275906896Q1799.6797256577452 481.905524848048 1796.1056987091079 478.19508465709663Q1792.558954408934 474.51192711460817 1787.811773576393 472.547576425281Q1783.0645927438527 470.5832257359538 1777.6899109966657 470.5832257359538L1777.6899109966657 470.5832257359538Q1772.3425118979417 470.5832257359538 1767.5953310654008 472.547576425281Q1762.8481502328605 474.51192711460817 1759.328688581149 478.19508465709663Q1755.8365095779009 481.905524848048 1753.817593591648 487.03466275906896Q1751.798677605395 492.1638006700899 1751.798677605395 498.49337511347755L1751.798677605395 498.49337511347755Q1751.798677605395 504.44099247838477 1753.817593591648 509.51556509248Q1755.8365095779009 514.6174203550381 1759.328688581149 518.3551431944524Q1762.8481502328605 522.0928660338666 1767.5953310654008 524.2481952624339Q1772.3425118979417 526.4035244910012 1777.6899109966657 526.4035244910012L1777.6899109966657 526.4035244910012Q1783.0645927438527 526.4035244910012 1787.811773576393 524.3846085047483Q1792.558954408934 522.3656925184953 1796.1056987091079 518.7371002729326Q1799.6797256577452 515.081225378907 1801.7259242924606 509.8975221709603Q1803.7994055756394 504.7138189630136 1803.7994055756394 498.49337511347755ZM1870.8328728489296 494.1827166563429L1870.8328728489296 550.7669295683509L1844.6415303245672 550.7669295683509L1844.6415303245672 448.047758105617L1850.9711047679548 448.047758105617L1859.619704330687 460.2158193200604Q1865.9492787740746 454.4591804943932 1873.9976600706232 451.3489585696252Q1882.0460413671722 448.23873664485717 1890.6946409299044 448.23873664485717L1890.6946409299044 448.23873664485717L1913.8030441779615 448.23873664485717L1913.8030441779615 474.32094857536805L1890.6946409299044 474.32094857536805Q1886.5749610120097 474.32094857536805 1882.919086117984 475.8487768892892Q1879.2632112239585 477.4038878516732 1876.5895116745965 480.0775874010352Q1873.9158121252344 482.7512869503972 1872.3607011628505 486.4071618444228Q1870.8328728489296 490.0630367384484 1870.8328728489296 494.1827166563429L1870.8328728489296 494.1827166563429ZM1952.3534264560076 537.6166930092438L1952.3534264560076 550.7669295683509L1925.9983880408677 550.7669295683509L1925.9983880408677 407.1783507082265L1952.3534264560076 407.1783507082265L1952.3534264560076 497.72946095651696L1991.3948964063852 448.23873664485717L2021.514940309402 448.23873664485717L1987.466195027731 491.0179294346491L2021.514940309402 550.7669295683509L1991.3948964063852 550.7669295683509L1970.5782356292093 513.4442664711344L1952.3534264560076 537.6166930092438Z " fill="#32fbe2" transform="matrix(0.43284365423227955,0,0,0.43284365423227944,0,93.24065126256794)"/></g></svg>